<svg xmlns="http://www.w3.org/2000/svg" width="100" height="100" viewBox="0 0 100 100">
    <g fill="none" fill-rule="evenodd">
        <path fill="#FFF" d="M-280-2043h1440v3640H-280z"/>
        <path fill="#FAFAF8" d="M-329-1058h1499V352H-329z"/>
        <g fill="#000" opacity=".504">
            <path d="M25.253 54.203c-.039 0-.077 0-.115.002l-14.813.4a4.15 4.15 0 0 0-4.031 4.257l.4 14.813a4.121 4.121 0 0 0 1.294 2.897 4.07 4.07 0 0 0 2.963 1.134l14.812-.401a4.117 4.117 0 0 0 2.897-1.293 4.118 4.118 0 0 0 1.134-2.963l-.401-14.813A4.117 4.117 0 0 0 28.1 55.34a4.116 4.116 0 0 0-2.847-1.136M10.833 81c-1.91 0-3.717-.72-5.109-2.038a7.387 7.387 0 0 1-2.32-5.199l-.401-14.812c-.111-4.1 3.133-7.525 7.233-7.637l14.812-.4a7.425 7.425 0 0 1 5.316 2.035 7.387 7.387 0 0 1 2.32 5.198l.401 14.813a7.387 7.387 0 0 1-2.035 5.316 7.388 7.388 0 0 1-5.198 2.32l-14.812.401-.207.003M57.165 53.292c-.039 0-.077 0-.116.002l-14.812.4a4.15 4.15 0 0 0-4.031 4.257l.401 14.812A4.117 4.117 0 0 0 39.9 75.66a4.127 4.127 0 0 0 2.963 1.133l14.812-.4a4.119 4.119 0 0 0 2.897-1.294 4.117 4.117 0 0 0 1.134-2.963l-.401-14.812a4.12 4.12 0 0 0-1.293-2.898 4.115 4.115 0 0 0-2.847-1.135m-14.42 26.796c-1.91 0-3.717-.72-5.109-2.038a7.387 7.387 0 0 1-2.32-5.198l-.401-14.813c-.111-4.098 3.134-7.525 7.233-7.636l14.812-.4a7.404 7.404 0 0 1 5.316 2.035 7.387 7.387 0 0 1 2.32 5.198l.401 14.813a7.389 7.389 0 0 1-2.035 5.315 7.39 7.39 0 0 1-5.198 2.32l-14.812.401a8.629 8.629 0 0 1-.207.003M56.25 22.292c-.037 0-.075 0-.113.002l-14.812.4a4.15 4.15 0 0 0-4.031 4.257l.401 14.812c.062 2.285 1.988 4.114 4.256 4.031l14.813-.4h-.001a4.15 4.15 0 0 0 4.031-4.257l-.4-14.812a4.15 4.15 0 0 0-4.143-4.033M41.837 49.088c-4.01 0-7.324-3.205-7.433-7.236l-.401-14.812c-.112-4.099 3.133-7.525 7.233-7.636l14.812-.401c4.097-.11 7.525 3.134 7.636 7.233l.401 14.812c.111 4.099-3.133 7.524-7.233 7.636l-14.812.401a8.432 8.432 0 0 1-.203.003M89.076 52.38l-.115.001-14.812.4a4.15 4.15 0 0 0-4.032 4.257l.402 14.813a4.117 4.117 0 0 0 1.293 2.898 4.13 4.13 0 0 0 2.963 1.133l14.812-.4a4.119 4.119 0 0 0 2.897-1.293 4.117 4.117 0 0 0 1.134-2.964l-.402-14.813a4.117 4.117 0 0 0-1.292-2.897 4.116 4.116 0 0 0-2.848-1.136m-14.42 26.797c-1.91 0-3.716-.719-5.108-2.038a7.387 7.387 0 0 1-2.32-5.198l-.402-14.813c-.11-4.1 3.134-7.525 7.233-7.637l14.813-.4c1.987-.038 3.873.669 5.315 2.035a7.387 7.387 0 0 1 2.32 5.198l.402 14.813a7.387 7.387 0 0 1-2.036 5.317 7.388 7.388 0 0 1-5.197 2.32l-14.812.4a8.629 8.629 0 0 1-.207.003"/>
            <path d="M45.853 35.412l3.548-3.647 3.746 3.454zM54.059 63.676l-3.548 3.648-3.746-3.455zM80.5 60.941l3.647 3.548-3.455 3.746zM18.5 70.059l-3.647-3.548 3.455-3.746z"/>
        </g>
    </g>
</svg>
