<svg xmlns="http://www.w3.org/2000/svg" xmlns:xlink="http://www.w3.org/1999/xlink" width="100" height="100" viewBox="0 0 100 100">
    <defs>
        <path id="a" d="M0 .53h60.953V89.94H0z"/>
    </defs>
    <g fill="none" fill-rule="evenodd">
        <path fill="#FFF" d="M-280-1730h1440v3640H-280z"/>
        <path fill="#FAFAF8" d="M-329-745h1499V665H-329z"/>
        <g opacity=".504">
            <g transform="translate(20 4)">
                <mask id="b" fill="#fff">
                    <use xlink:href="#a"/>
                </mask>
                <path fill="#000" d="M39.574 3.451c-.335 0-.672.033-1.007.098L7.147 9.633a5.165 5.165 0 0 0-3.313 2.178 5.079 5.079 0 0 0-.789 3.863l13.245 67.18a5.113 5.113 0 0 0 2.199 3.285 5.199 5.199 0 0 0 3.898.782l31.418-6.085a5.166 5.166 0 0 0 3.314-2.179 5.08 5.08 0 0 0 .789-3.862L44.662 7.615a5.11 5.11 0 0 0-2.198-3.284 5.187 5.187 0 0 0-2.89-.88m-18.2 86.488c-1.604 0-3.17-.471-4.53-1.378a8.012 8.012 0 0 1-3.445-5.147L.154 16.234a7.96 7.96 0 0 1 1.236-6.053 8.094 8.094 0 0 1 5.193-3.414L38.002.682a8.149 8.149 0 0 1 6.107 1.225 8.012 8.012 0 0 1 3.445 5.147l13.245 67.18a7.96 7.96 0 0 1-1.236 6.054 8.092 8.092 0 0 1-5.193 3.414l-31.419 6.085a8.35 8.35 0 0 1-1.578.152" mask="url(#b)"/>
            </g>
            <path fill="#000" d="M39.706 17.657l-.587-2.93 8.518-1.623.587 2.93zM46.005 57.8l7.788 3.676-4.772-17.815-4.888 7.152-4.176 1.146 1.871 6.987 4.177-1.145zm12.234 9.02l-12.5-5.896-5.958 1.633-3.393-12.67 5.958-1.633 7.845-11.478 8.048 30.045zM55.63 44.97l-1.943-2.234 6.251-5.96 1.943 2.234zM66.728 62.269l-8.49-1.745.616-2.808 8.49 1.746zM57.19 52.254l-.772-2.667L63.84 47.7l.772 2.668z"/>
        </g>
    </g>
</svg>
