<svg xmlns="http://www.w3.org/2000/svg" xmlns:xlink="http://www.w3.org/1999/xlink" width="100" height="100" viewBox="0 0 100 100">
    <defs>
        <path id="a" d="M.329.071h67.62v66.076H.329z"/>
    </defs>
    <g fill="none" fill-rule="evenodd">
        <path fill="#FFF" d="M-730-2043H710v3640H-730z"/>
        <path fill="#FAFAF8" d="M-779-1058H720V352H-779z"/>
        <g opacity=".504">
            <g transform="translate(16 17)">
                <mask id="b" fill="#fff">
                    <use xlink:href="#a"/>
                </mask>
                <path fill="#000" d="M34.04 58.742c.76 0 1.526.236 2.29.708 1.043.645 2.131 1.277 3.184 1.888.597.347 1.194.694 1.788 1.046.74.436 1.335.635 1.807.604.035-.002.072-.008.105-.003h.026c1.773 0 3.051-.86 3.698-2.492l.173-.439c.683-1.72 1.388-3.5 1.975-5.261.556-1.67 1.671-2.593 3.409-2.818 1.545-.2 3.125-.486 4.655-.76l1.089-.196c1.203-.214 2.165-.83 2.708-1.733.547-.912.636-2.059.253-3.232a378.755 378.755 0 0 0-2.04-6.11c-.475-1.369-.246-2.607.68-3.678 1.268-1.47 2.616-3.057 3.88-4.702.59-.766 1.244-1.93 1.02-3.13-.226-1.208-1.268-2.067-2.102-2.575l-1.483-.906c-1.234-.754-2.468-1.51-3.712-2.247-1.222-.725-1.847-1.813-1.859-3.235-.009-1.17-.044-2.37-.078-3.53a224.23 224.23 0 0 1-.068-2.728 3.686 3.686 0 0 0-1.299-2.745 3.577 3.577 0 0 0-2.865-.832c-.649.093-1.298.183-1.947.272-1.55.214-3.152.435-4.706.7-1.285.22-2.338-.166-3.223-1.179a201.774 201.774 0 0 0-4.417-4.927c-.782-.837-1.804-1.293-2.855-1.275-1.086.015-2.117.513-2.901 1.403-.496.562-1.001 1.116-1.506 1.67-.821.9-1.67 1.83-2.447 2.768-1.053 1.274-2.46 1.756-4.176 1.428-1.206-.23-2.414-.444-3.623-.659a563.43 563.43 0 0 1-1.882-.336c-1.285-.234-2.456.02-3.298.712-.833.684-1.303 1.767-1.321 3.05-.028 1.919-.056 3.903-.023 5.842.024 1.466-.614 2.593-1.898 3.348-1.307.77-2.629 1.58-3.907 2.362l-1.449.886c-.52.317-1.05.674-1.405 1.144-1.118 1.48-1.058 3.096.174 4.67 1.211 1.55 2.51 3.091 3.767 4.581l.252.299c.849 1.007 1.059 2.152.624 3.403-.814 2.342-1.5 4.395-2.096 6.278-.373 1.178-.278 2.322.267 3.22.545.899 1.516 1.512 2.734 1.727 1.718.305 3.749.66 5.784.977 1.69.265 2.812 1.196 3.335 2.77.573 1.723 1.269 3.552 2.187 5.756.474 1.136 1.28 1.945 2.27 2.278 1.002.336 2.152.18 3.236-.447.418-.242.838-.482 1.259-.723 1.226-.7 2.494-1.426 3.692-2.183.747-.473 1.504-.709 2.265-.709m8.975 7.405c-1.043 0-2.134-.345-3.326-1.05-.587-.347-1.177-.69-1.767-1.032-1.07-.622-2.178-1.265-3.258-1.933-.533-.328-.756-.295-1.196-.016-1.258.795-2.557 1.538-3.813 2.256-.415.237-.831.475-1.246.715-1.884 1.088-3.955 1.338-5.833.706-1.866-.629-3.35-2.068-4.178-4.055-.95-2.277-1.67-4.176-2.27-5.975-.142-.429-.26-.558-.822-.646-2.063-.322-4.113-.68-5.848-.987-2.126-.376-3.861-1.512-4.885-3.199-1.024-1.687-1.23-3.748-.577-5.806.604-1.91 1.3-3.99 2.123-6.36.046-.134.044-.19.044-.193 0 0-.018-.049-.1-.147l-.252-.297c-1.275-1.513-2.594-3.077-3.841-4.672-2.113-2.702-2.19-5.884-.205-8.51.675-.894 1.532-1.482 2.282-1.937l1.442-.882a264.24 264.24 0 0 1 3.955-2.391c.319-.188.348-.271.342-.577-.033-1.989-.004-3.998.024-5.941.032-2.226.91-4.158 2.473-5.442 1.572-1.29 3.658-1.78 5.872-1.38.624.113 1.248.224 1.872.335 1.222.217 2.443.433 3.66.665.677.129.877-.01 1.147-.336.825-.997 1.7-1.956 2.545-2.884.494-.54.987-1.081 1.471-1.63C30.233.978 32.09.1 34.082.072c1.968-.036 3.816.783 5.214 2.28 1.66 1.78 3.27 3.61 4.488 5.005.09.104.143.146.163.16.007-.003.055-.004.14-.018 1.604-.275 3.233-.5 4.807-.716.644-.089 1.287-.177 1.93-.27a6.796 6.796 0 0 1 5.366 1.553 6.839 6.839 0 0 1 2.41 5.093c.016.898.041 1.794.068 2.69.034 1.176.07 2.393.079 3.597.002.313.046.39.313.548 1.257.745 2.502 1.507 3.748 2.27l1.477.902c1.985 1.208 3.216 2.83 3.564 4.69.347 1.854-.213 3.8-1.618 5.628-1.314 1.708-2.696 3.336-3.995 4.84-.171.2-.204.253-.088.59.73 2.11 1.417 4.2 2.059 6.162.671 2.054.477 4.124-.547 5.83-1.02 1.7-2.749 2.843-4.867 3.219l-1.081.194c-1.567.282-3.187.574-4.81.784-.527.069-.642.165-.814.685-.616 1.845-1.337 3.666-2.036 5.427l-.173.437c-1.13 2.851-3.544 4.485-6.629 4.488a4.405 4.405 0 0 1-.235.007" mask="url(#b)"/>
            </g>
            <path fill="#000" d="M46.42 60.59c-1.058 0-1.907-.364-2.564-1.109l-1.685-1.907a676.935 676.935 0 0 1-4.855-5.532 1.628 1.628 0 0 1 .137-2.263 1.546 1.546 0 0 1 2.215.14c1.596 1.845 3.241 3.706 4.832 5.506l1.688 1.91c.017.019.07.043.205.048a2.37 2.37 0 0 0 .339-.341c2.826-3.296 5.657-6.588 8.487-9.88l1.098-1.276c1.627-1.893 3.256-3.785 4.885-5.676a1.546 1.546 0 0 1 2.214-.143c.65.585.714 1.597.141 2.262-1.628 1.89-3.256 3.78-4.883 5.672l-1.097 1.276c-2.83 3.291-5.659 6.582-8.484 9.877-.529.617-1.371 1.435-2.586 1.435h-.087z"/>
        </g>
    </g>
</svg>
