<svg xmlns="http://www.w3.org/2000/svg" xmlns:xlink="http://www.w3.org/1999/xlink" width="100" height="100" viewBox="0 0 100 100">
    <defs>
        <path id="a" d="M.236.002H58.17V97H.236z"/>
    </defs>
    <g fill="none" fill-rule="evenodd">
        <path fill="#FFF" d="M-730-1730H710v3640H-730z"/>
        <path fill="#FAFAF8" d="M-779-745H720V665H-779z"/>
        <g opacity=".504" transform="translate(25 1)">
            <mask id="b" fill="#fff">
                <use xlink:href="#a"/>
            </mask>
            <path fill="#000" d="M35.404 49.883c.131 2.12.797 3.509 1.583 4.839 1.29 2.18 1.726 2.273 3.947 1.018 2.666-1.505 5.007-3.474 7.506-5.217.537-.376.25-.616-.047-.934-2.125-2.268-4.628-4.042-7.258-5.67-.772-.48-1.435-.441-2.143-.026-2.49 1.46-3.63 3.664-3.588 5.99M24.197 75.935c3.32-.255 6.641-.517 9.962-.76.559-.042.964-.147 1.197-.771 1.295-3.462 3.562-6.137 6.628-8.198 4.383-2.948 8.13-6.594 11.455-10.683.563-.692 1.11-1.403 1.46-2.238.291-.695.078-1.132-.668-1.295-1.275-.279-2.46-.05-3.517.7-1.885 1.337-3.735 2.724-5.632 4.045-1.364.951-2.756 1.872-4.333 2.456-2.397.887-3.986.426-5.513-1.596-.785-1.039-1.397-2.175-1.916-3.366-1.686-3.87-1.166-7.456 1.414-10.755 2.627-3.357 5.825-3.846 9.294-1.47 2.168 1.484 4.17 3.17 6.062 4.989.578.555 1.157 1.129 1.938 1.39.623.208 1.336.36 1.834-.151.428-.44-.06-.98-.157-1.474-.024-.118-.08-.233-.135-.343-2.003-4.078-4.594-7.716-7.985-10.774-1.087-.98-2.313-1.323-3.73-1.27-4.832.182-9.297 1.746-13.697 3.568-.498.207-.771.571-.947 1.062-.47 1.316-.71 2.669-.802 4.063-.071 1.094-.72 1.682-1.621 1.605-.903-.077-1.406-.767-1.421-1.827-.031-2.156.618-4.125 1.582-6.014.182-.357.346-.702.364-1.126.101-2.367.238-4.733.346-7.1.363-7.931.714-15.863 1.082-23.794.038-.837-.337-1.348-1.094-1.607-1.228-.42-2.593.342-3.152 1.741-.362.907-.346 1.87-.439 2.818L19.71 31.84c-.424 4.35-.84 8.701-1.282 13.05-.12 1.172-.755 1.79-1.649 1.715-.984-.084-1.497-.777-1.381-1.992.731-7.692 1.47-15.382 2.226-23.071.235-2.402.256-4.799-.103-7.187-.124-.824-.332-1.701-1.347-1.879-1.581-.276-2.946.768-3.16 2.37-.066.488-.088.98-.127 1.472-.49 6.228-.977 12.457-1.47 18.685-.241 3.038-.476 6.076-.75 9.11-.088.976-.813 1.575-1.654 1.496-.855-.08-1.443-.816-1.37-1.771.212-2.824.462-5.645.658-8.469.187-2.697.633-5.39.214-8.105-.132-.86-.315-1.7-.77-2.45-.533-.878-1.233-.935-1.963-.202-.568.57-.684 1.294-.72 2.041-.279 5.628-.82 11.237-1.44 16.834-.683 6.16-.274 12.17 1.872 18.018 1.924 5.239 4.902 9.934 7.63 14.759.291.516.736.469 1.204.432 3.29-.256 6.58-.508 9.87-.76m-14.83-54.06c.137-1.7.266-3.282.392-4.865.073-.92.1-1.847.223-2.76.495-3.728 4.672-5.986 8.05-4.345.56.272.76.222.794-.419.066-1.29.146-2.58.263-3.867.312-3.441 3.676-6.123 6.919-5.537 2.334.42 3.886 2.476 3.77 4.847-.281 5.81-.517 11.62-.776 17.43-.167 3.72-.327 7.44-.529 11.157-.04.754.101.963.856.667 3.338-1.305 6.751-2.335 10.32-2.796 3.463-.447 6.515.22 9.014 2.894 2.966 3.174 5.612 6.556 7.43 10.522.66 1.436 1.159 2.936.723 4.559-.098.365.092.585.31.81 1.307 1.35 1.284 2.852.487 4.425-1.17 2.31-2.847 4.243-4.616 6.097-3.05 3.197-6.352 6.105-10.031 8.573-1.752 1.175-3.05 2.77-4.032 4.623-.414.781-.323.912.537.867.585-.03 1.168-.102 1.754-.123 1.378-.05 1.997.474 2.124 1.858.16 1.748.278 3.501.413 5.252l.796 10.324c.036.463.071.926-.108 1.369-.26.643-.748.959-1.438.958-.66-.001-1.113-.332-1.357-.929-.2-.49-.226-1.02-.266-1.542-.329-4.272-.656-8.542-.988-12.813-.095-1.21-.143-1.255-1.333-1.163-9.438.724-18.876 1.45-28.314 2.179-1.202.092-1.205.1-1.109 1.347.337 4.394.677 8.787 1.015 13.181.023.307.069.617.05.922-.048.727-.431 1.222-1.15 1.377-.746.161-1.33-.111-1.703-.793-.216-.394-.21-.832-.244-1.26-.392-5.07-.783-10.139-1.172-15.209-.142-1.851.323-2.398 2.158-2.56 1.415-.124 1.394-.112.691-1.38-2.298-4.147-4.788-8.196-6.47-12.66-2.28-6.048-3.03-12.276-2.335-18.7.669-6.181 1.14-12.38 1.598-18.58.201-2.732 2.371-4.803 4.839-4.794.865.003 1.592.386 2.445.857" mask="url(#b)"/>
        </g>
    </g>
</svg>
